<svg width="24" height="24" viewBox="0 0 24 24" fill="none" xmlns="http://www.w3.org/2000/svg">
<g clip-path="url(#clip0_361_2)">
<path d="M1.76 7.582L6.035 12.949L10.309 7.582H11.922L6.833 13.966L11.791 20.185H10.178L6.034 14.984L1.892 20.185H0.262L5.219 13.966L0.131 7.582H1.76ZM18.24 7.5C21.554 7.5 24.131 10.516 24.131 13.884C24.131 17.309 21.518 20.215 18.248 20.267C14.947 20.167 12.444 17.389 12.337 14.103L12.333 13.884C12.333 10.448 14.97 7.5 18.24 7.5ZM18.24 8.768C15.65 8.768 13.601 11.168 13.601 13.884C13.679 16.62 15.584 18.88 18.045 18.995L18.24 18.999C20.823 18.999 22.863 16.593 22.863 13.884C22.863 11.132 20.777 8.768 18.24 8.768Z" fill="#DEDEDE"/>
</g>
<defs>
<clipPath id="clip0_361_2">
<rect width="24" height="24" fill="white"/>
</clipPath>
</defs>
</svg>
